%
M48
M72
T13C0.0130
T28C0.0280
T31C0.0310
T32C0.0320
T35C0.0350
T39C0.0390
T40C0.0400
T130C0.1300
%
T13
X21000Y22000
X29000Y22000
T28
X24000Y18000
X24000Y18000
X23000Y17000
X19000Y16500
X16000Y17500
X16500Y19000
X16500Y19000
X17000Y21500
X16500Y22000
X16500Y22000
X19000Y21500
X19000Y21500
X13500Y15500
X10500Y13000
X9500Y13000
X5000Y10500
X4000Y11000
X4500Y13000
X1500Y12500
X1500Y10500
X2500Y20500
X15000Y10500
X16500Y9000
X16500Y12000
X16500Y13000
X20000Y10500
X22500Y12000
X22500Y13000
X28000Y17000
X28000Y17000
X29000Y17000
X28500Y15000
X30500Y14500
X28500Y13000
X20000Y1500
T31
X20500Y17500
X21500Y17500
X22500Y17500
X23500Y17500
X24500Y17500
X25500Y17500
X26500Y17500
X27500Y17500
X28500Y17500
X29500Y17500
X19000Y18500
X18000Y18500
X17000Y18500
X16000Y18500
X15000Y18500
X14000Y18500
X14000Y22500
X15000Y22500
X16000Y22500
X17000Y22500
X18000Y22500
X19000Y22500
T32
X29500Y16000
X30250Y15500
X29500Y15000
T35
X29500Y13500
X29500Y12500
X26000Y9500
X25000Y9500
X24000Y9500
X23000Y9500
X22000Y9500
X21000Y9500
X20000Y9500
X19000Y9500
X18000Y9500
X17000Y9500
X16000Y9500
X15000Y9500
X15000Y500
X14000Y500
X16000Y500
X17000Y500
X18000Y500
X19000Y500
X20000Y500
X21000Y500
X22000Y500
X23000Y500
X24000Y500
X25000Y500
X26000Y500
T39
X24500Y11500
X24500Y15500
T40
X12500Y15500
X11500Y15500
X10500Y15500
X9500Y15500
X8500Y15500
X7500Y15500
X6500Y15500
X5500Y15500
X4500Y15500
X3500Y15500
X2500Y15500
X1500Y15500
X500Y16000
X500Y17000
X500Y18000
X500Y19000
X500Y20000
X500Y21000
X1500Y21500
X2500Y21500
X3500Y21500
X4500Y21500
X5500Y21500
X6500Y21500
X7500Y21500
X8500Y21500
X9500Y21500
X10500Y21500
X11500Y21500
X12500Y21500
X12500Y23000
X11500Y23000
X10500Y23000
X9500Y23000
X8500Y23000
X7500Y23000
X6500Y23000
X5500Y23000
X4500Y23000
X3500Y23000
X2500Y23000
X1500Y23000
X4938Y20375
X5938Y20375
X9063Y20375
X10063Y20375
X10500Y14000
X11500Y14000
X12500Y14000
X9500Y14000
X8500Y14000
X7500Y14000
X6500Y14000
X5500Y14000
X4500Y14000
X3500Y14000
X2500Y14000
X1500Y14000
X500Y12500
X500Y11500
X500Y10500
X3000Y9500
X4000Y9500
X5000Y9500
X6000Y9500
X5000Y500
X4000Y500
T130
X1000Y1000
X8000Y1000
X8000Y9000
X1000Y9000
M30
