G75*
%MOIN*%
%OFA0B0*%
%FSLAX24Y24*%
%IPPOS*%
%LPD*%
%AMOC8*
5,1,8,0,0,1.08239X$1,22.5*
%
%ADD10C,0.0515*%
%ADD11C,0.0740*%
%ADD12C,0.0780*%
%ADD13C,0.0650*%
%ADD14R,0.0650X0.0650*%
%ADD15C,0.0554*%
%ADD16C,0.0100*%
%ADD17C,0.0436*%
D10*
X020500Y017500D03*
X021500Y017500D03*
X022500Y017500D03*
X023500Y017500D03*
X024500Y017500D03*
X025500Y017500D03*
X026500Y017500D03*
X027500Y017500D03*
X028500Y017500D03*
X029500Y017500D03*
X019000Y018500D03*
X018000Y018500D03*
X017000Y018500D03*
X016000Y018500D03*
X015000Y018500D03*
X014000Y018500D03*
X014000Y022500D03*
X015000Y022500D03*
X016000Y022500D03*
X017000Y022500D03*
X018000Y022500D03*
X019000Y022500D03*
D11*
X004000Y000500D03*
X005000Y000500D03*
X005000Y009500D03*
X004000Y009500D03*
X003000Y009500D03*
X000500Y010500D03*
X000500Y011500D03*
X000500Y012500D03*
X001500Y014000D03*
X002500Y014000D03*
X003500Y014000D03*
X004500Y014000D03*
X005500Y014000D03*
X006500Y014000D03*
X007500Y014000D03*
X008500Y014000D03*
X009500Y014000D03*
X010500Y014000D03*
X011500Y014000D03*
X012500Y014000D03*
X012500Y015500D03*
X011500Y015500D03*
X010500Y015500D03*
X009500Y015500D03*
X008500Y015500D03*
X007500Y015500D03*
X006500Y015500D03*
X005500Y015500D03*
X004500Y015500D03*
X003500Y015500D03*
X002500Y015500D03*
X001500Y015500D03*
X000500Y016000D03*
X000500Y017000D03*
X000500Y018000D03*
X000500Y019000D03*
X000500Y020000D03*
X000500Y021000D03*
X001500Y021500D03*
X002500Y021500D03*
X003500Y021500D03*
X004500Y021500D03*
X005500Y021500D03*
X006500Y021500D03*
X007500Y021500D03*
X008500Y021500D03*
X009500Y021500D03*
X010500Y021500D03*
X011500Y021500D03*
X012500Y021500D03*
X012500Y023000D03*
X011500Y023000D03*
X010500Y023000D03*
X009500Y023000D03*
X008500Y023000D03*
X007500Y023000D03*
X006500Y023000D03*
X005500Y023000D03*
X004500Y023000D03*
X003500Y023000D03*
X002500Y023000D03*
X001500Y023000D03*
X004938Y020375D03*
X005938Y020375D03*
X009063Y020375D03*
X010063Y020375D03*
X006000Y009500D03*
X029500Y012500D03*
X029500Y013500D03*
X029500Y015000D03*
X030250Y015500D03*
X029500Y016000D03*
D12*
X024500Y015500D03*
X024500Y011500D03*
D13*
X022500Y012000D03*
X016500Y012000D03*
D14*
X016500Y013000D03*
X022500Y013000D03*
D15*
X022000Y009500D03*
X021000Y009500D03*
X020000Y009500D03*
X019000Y009500D03*
X018000Y009500D03*
X017000Y009500D03*
X016000Y009500D03*
X015000Y009500D03*
X023000Y009500D03*
X024000Y009500D03*
X025000Y009500D03*
X026000Y009500D03*
X026000Y000500D03*
X025000Y000500D03*
X024000Y000500D03*
X023000Y000500D03*
X022000Y000500D03*
X021000Y000500D03*
X020000Y000500D03*
X019000Y000500D03*
X018000Y000500D03*
X017000Y000500D03*
X016000Y000500D03*
X015000Y000500D03*
X014000Y000500D03*
D16*
X020000Y000500D02*
X020000Y001500D01*
X021000Y000500D02*
X021000Y007500D01*
X021500Y008000D01*
X023000Y008000D01*
X023500Y008500D01*
X023500Y010500D01*
X023000Y011000D01*
X022000Y011000D01*
X020500Y012500D01*
X009000Y012500D01*
X008500Y013000D01*
X008500Y014000D01*
X008500Y015500D01*
X007500Y015500D02*
X007500Y014000D01*
X006500Y014000D02*
X006500Y015500D01*
X005500Y015500D02*
X005500Y014000D01*
X008500Y011000D01*
X020500Y011000D01*
X022000Y009500D01*
X023000Y009500D02*
X021000Y011500D01*
X009000Y011500D01*
X006500Y014000D01*
X004500Y014000D02*
X004500Y015500D01*
X003500Y015500D02*
X003500Y014000D01*
X004500Y014000D02*
X004500Y013000D01*
X005500Y011500D02*
X006000Y011000D01*
X006000Y009500D01*
X005000Y009500D02*
X005000Y010500D01*
X005500Y011500D02*
X000500Y011500D01*
X000500Y010500D02*
X001500Y010500D01*
X001500Y012500D02*
X000500Y012500D01*
X000500Y015000D01*
X001000Y015500D01*
X001000Y016000D01*
X001500Y016500D01*
X001500Y019500D01*
X002000Y020000D01*
X003500Y020000D01*
X004500Y021000D01*
X004500Y021500D01*
X004500Y023000D01*
X003500Y023000D02*
X003500Y021500D01*
X002500Y021500D02*
X002500Y020500D01*
X002500Y021500D02*
X002500Y023000D01*
X001500Y023000D02*
X001500Y021500D01*
X004938Y020375D02*
X005000Y020500D01*
X006500Y019000D01*
X013500Y019000D01*
X014000Y018500D01*
X016000Y018500D02*
X016000Y017500D01*
X017000Y016500D02*
X001500Y016500D01*
X001500Y015500D02*
X001500Y014000D01*
X002500Y014000D02*
X002500Y015500D01*
X007000Y019500D02*
X006000Y020500D01*
X005938Y020375D01*
X007000Y019500D02*
X018000Y019500D01*
X019000Y018500D01*
X017000Y018500D02*
X017000Y016500D01*
X017000Y013000D01*
X020500Y013000D01*
X022000Y011500D01*
X023500Y011500D01*
X024500Y010500D01*
X025000Y010500D01*
X026000Y009500D01*
X024500Y011500D02*
X025000Y012000D01*
X030000Y012000D01*
X030000Y013500D01*
X029500Y013500D01*
X029000Y013500D01*
X028000Y014500D01*
X028000Y016000D01*
X029500Y016000D01*
X030000Y015500D02*
X030250Y015500D01*
X030000Y015500D02*
X030000Y016500D01*
X019000Y016500D01*
X016500Y019000D02*
X016000Y018500D01*
X016500Y020000D02*
X023000Y020000D01*
X025500Y017500D01*
X024500Y017500D02*
X024000Y018000D01*
X023500Y017500D02*
X023000Y017000D01*
X024500Y015500D02*
X026500Y015500D01*
X027000Y015000D01*
X027000Y013000D01*
X027500Y012500D01*
X028500Y012500D01*
X028500Y013000D01*
X028500Y012500D02*
X029500Y012500D01*
X030000Y014500D02*
X029500Y015000D01*
X028500Y015000D01*
X030000Y014500D02*
X030500Y014500D01*
X029000Y017000D02*
X029500Y017500D01*
X028500Y017500D02*
X028000Y017000D01*
X020000Y010500D02*
X020000Y009500D01*
X017000Y009500D02*
X016500Y009000D01*
X015000Y009500D02*
X015000Y010500D01*
X015000Y009500D02*
X013000Y007500D01*
X005000Y007500D01*
X005000Y009500D01*
X004000Y009500D02*
X004000Y011000D01*
X005000Y007500D02*
X005000Y000500D01*
X009500Y013000D02*
X009500Y014000D01*
X009500Y015500D01*
X010500Y015500D02*
X010500Y014000D01*
X010500Y013000D01*
X011500Y014000D02*
X011500Y015500D01*
X012500Y015500D02*
X013500Y015500D01*
X012500Y015500D02*
X012500Y014000D01*
X016500Y013000D02*
X017000Y013000D01*
X016500Y020000D02*
X014000Y022500D01*
X012500Y023000D02*
X012500Y021500D01*
X011500Y021500D02*
X011500Y023000D01*
X010500Y023000D02*
X010500Y021500D01*
X009500Y021500D02*
X009500Y023000D01*
X008500Y023000D02*
X008500Y021500D01*
X007500Y021500D02*
X007500Y023000D01*
X006500Y023000D02*
X006500Y021500D01*
X005500Y021500D02*
X005500Y023000D01*
X016000Y022500D02*
X016500Y022000D01*
X017000Y021500D02*
X017000Y022500D01*
X019000Y022500D02*
X019000Y021500D01*
D17*
X019000Y021500D03*
X019000Y021500D03*
X017000Y021500D03*
X016500Y022000D03*
X016500Y022000D03*
X016500Y019000D03*
X016500Y019000D03*
X016000Y017500D03*
X013500Y015500D03*
X010500Y013000D03*
X009500Y013000D03*
X005000Y010500D03*
X004000Y011000D03*
X004500Y013000D03*
X001500Y012500D03*
X001500Y010500D03*
X002500Y020500D03*
X015000Y010500D03*
X016500Y009000D03*
X020000Y010500D03*
X019000Y016500D03*
X023000Y017000D03*
X024000Y018000D03*
X024000Y018000D03*
X028000Y017000D03*
X028000Y017000D03*
X029000Y017000D03*
X028500Y015000D03*
X030500Y014500D03*
X028500Y013000D03*
X020000Y001500D03*
M02*
