G75*
%MOIN*%
%OFA0B0*%
%FSLAX24Y24*%
%IPPOS*%
%LPD*%
%AMOC8*
5,1,8,0,0,1.08239X$1,22.5*
%
%ADD10C,0.0515*%
%ADD11C,0.0740*%
%ADD12R,0.0480X0.0880*%
%ADD13R,0.1417X0.0866*%
%ADD14R,0.0709X0.0630*%
%ADD15R,0.0630X0.0709*%
%ADD16C,0.0780*%
%ADD17C,0.0650*%
%ADD18R,0.0650X0.0650*%
%ADD19C,0.0554*%
%ADD20C,0.0100*%
%ADD21C,0.0436*%
D10*
X020500Y017500D03*
X021500Y017500D03*
X022500Y017500D03*
X023500Y017500D03*
X024500Y017500D03*
X025500Y017500D03*
X026500Y017500D03*
X027500Y017500D03*
X028500Y017500D03*
X029500Y017500D03*
X019000Y018500D03*
X018000Y018500D03*
X017000Y018500D03*
X016000Y018500D03*
X015000Y018500D03*
X014000Y018500D03*
X014000Y022500D03*
X015000Y022500D03*
X016000Y022500D03*
X017000Y022500D03*
X018000Y022500D03*
X019000Y022500D03*
D11*
X004000Y000500D03*
X005000Y000500D03*
X005000Y009500D03*
X004000Y009500D03*
X003000Y009500D03*
X000500Y010500D03*
X000500Y011500D03*
X000500Y012500D03*
X001500Y014000D03*
X002500Y014000D03*
X003500Y014000D03*
X004500Y014000D03*
X005500Y014000D03*
X006500Y014000D03*
X007500Y014000D03*
X008500Y014000D03*
X009500Y014000D03*
X010500Y014000D03*
X011500Y014000D03*
X012500Y014000D03*
X012500Y015500D03*
X011500Y015500D03*
X010500Y015500D03*
X009500Y015500D03*
X008500Y015500D03*
X007500Y015500D03*
X006500Y015500D03*
X005500Y015500D03*
X004500Y015500D03*
X003500Y015500D03*
X002500Y015500D03*
X001500Y015500D03*
X000500Y016000D03*
X000500Y017000D03*
X000500Y018000D03*
X000500Y019000D03*
X000500Y020000D03*
X000500Y021000D03*
X001500Y021500D03*
X002500Y021500D03*
X003500Y021500D03*
X004500Y021500D03*
X005500Y021500D03*
X006500Y021500D03*
X007500Y021500D03*
X008500Y021500D03*
X009500Y021500D03*
X010500Y021500D03*
X011500Y021500D03*
X012500Y021500D03*
X012500Y023000D03*
X011500Y023000D03*
X010500Y023000D03*
X009500Y023000D03*
X008500Y023000D03*
X007500Y023000D03*
X006500Y023000D03*
X005500Y023000D03*
X004500Y023000D03*
X003500Y023000D03*
X002500Y023000D03*
X001500Y023000D03*
X004938Y020375D03*
X005938Y020375D03*
X009063Y020375D03*
X010063Y020375D03*
X006000Y009500D03*
X029500Y012500D03*
X029500Y013500D03*
X029500Y015000D03*
X030250Y015500D03*
X029500Y016000D03*
D12*
X020410Y013720D03*
X019500Y013720D03*
X018590Y013720D03*
D13*
X019500Y011280D03*
D14*
X017000Y014449D03*
X016000Y014449D03*
X016000Y015551D03*
X017000Y015551D03*
X022000Y015551D03*
X023000Y015551D03*
X023000Y014449D03*
X022000Y014449D03*
D15*
X020051Y015500D03*
X018949Y015500D03*
D16*
X024500Y015500D03*
X024500Y011500D03*
D17*
X022500Y012000D03*
X016500Y012000D03*
D18*
X016500Y013000D03*
X022500Y013000D03*
D19*
X022000Y009500D03*
X021000Y009500D03*
X020000Y009500D03*
X019000Y009500D03*
X018000Y009500D03*
X017000Y009500D03*
X016000Y009500D03*
X015000Y009500D03*
X023000Y009500D03*
X024000Y009500D03*
X025000Y009500D03*
X026000Y009500D03*
X026000Y000500D03*
X025000Y000500D03*
X024000Y000500D03*
X023000Y000500D03*
X022000Y000500D03*
X021000Y000500D03*
X020000Y000500D03*
X019000Y000500D03*
X018000Y000500D03*
X017000Y000500D03*
X016000Y000500D03*
X015000Y000500D03*
X014000Y000500D03*
D20*
X020000Y001500D02*
X013000Y008500D01*
X009500Y008500D01*
X009500Y013000D01*
X010500Y013000D02*
X010500Y009500D01*
X011000Y009000D01*
X016500Y009000D01*
X016000Y010500D02*
X015500Y010500D01*
X015000Y010500D01*
X015500Y010500D02*
X015500Y015000D01*
X016000Y015500D01*
X016000Y015551D01*
X016000Y017500D01*
X016500Y019000D02*
X016500Y022000D01*
X017000Y021500D02*
X019500Y019000D01*
X019500Y014000D01*
X019500Y013720D01*
X019500Y014000D02*
X021000Y015500D01*
X022000Y015500D01*
X022000Y015551D01*
X022000Y015500D02*
X022500Y015500D01*
X022500Y013000D01*
X023000Y012500D02*
X022500Y012000D01*
X022500Y011000D01*
X022000Y010500D01*
X020000Y010500D01*
X020500Y012500D02*
X020500Y013500D01*
X020410Y013720D01*
X020500Y014000D01*
X020500Y014500D01*
X022000Y014500D01*
X022000Y014449D01*
X023000Y014449D02*
X023000Y014500D01*
X028000Y014500D01*
X028500Y015000D01*
X028000Y014500D02*
X028000Y017000D01*
X029000Y017000D02*
X029000Y013500D01*
X028500Y013000D01*
X028500Y012000D02*
X030000Y012000D01*
X030000Y014000D01*
X030500Y014500D01*
X024500Y015500D02*
X023000Y015500D01*
X023000Y015551D01*
X023000Y017000D01*
X024000Y018000D02*
X024000Y019000D01*
X023000Y020000D01*
X020000Y020000D01*
X019000Y021000D01*
X019000Y021500D01*
X017500Y022000D02*
X017500Y023000D01*
X013000Y023000D01*
X013000Y016500D01*
X013500Y016000D01*
X013500Y015500D01*
X016000Y015500D02*
X017000Y015500D01*
X017000Y015551D01*
X017000Y014500D02*
X017000Y014449D01*
X017000Y014500D02*
X019000Y014500D01*
X019000Y015500D01*
X018949Y015500D01*
X019000Y015500D02*
X019000Y016500D01*
X020000Y015500D02*
X020051Y015500D01*
X020000Y015500D02*
X020000Y019500D01*
X017500Y022000D01*
X022500Y015500D02*
X023000Y015500D01*
X023000Y014449D02*
X023000Y012500D01*
X022500Y012000D02*
X016500Y012000D01*
X016500Y011000D01*
X016000Y010500D01*
X016000Y012500D02*
X020500Y012500D01*
X018500Y013500D02*
X018590Y013720D01*
X018500Y013500D02*
X016500Y013500D01*
X016500Y013000D01*
X016000Y012500D02*
X016000Y014449D01*
X016000Y014500D01*
X005000Y012500D02*
X005000Y010500D01*
X001500Y010500D01*
X001500Y012500D02*
X003500Y012500D01*
X004000Y012000D01*
X004000Y011000D01*
X005000Y012500D02*
X004500Y013000D01*
X004500Y015500D02*
X004500Y020000D01*
X004000Y020500D01*
X002500Y020500D01*
D21*
X002500Y020500D03*
X004500Y013000D03*
X004000Y011000D03*
X005000Y010500D03*
X001500Y010500D03*
X001500Y012500D03*
X009500Y013000D03*
X010500Y013000D03*
X013500Y015500D03*
X016000Y017500D03*
X016500Y019000D03*
X016500Y019000D03*
X019000Y016500D03*
X023000Y017000D03*
X024000Y018000D03*
X024000Y018000D03*
X028000Y017000D03*
X028000Y017000D03*
X029000Y017000D03*
X028500Y015000D03*
X030500Y014500D03*
X028500Y013000D03*
X020000Y010500D03*
X016500Y009000D03*
X015000Y010500D03*
X020000Y001500D03*
X019000Y021500D03*
X019000Y021500D03*
X017000Y021500D03*
X016500Y022000D03*
X016500Y022000D03*
M02*
